<svg version="1.1" id="Layer_1" xmlns:sketch="http://www.bohemiancoding.com/sketch/ns"
	 xmlns="http://www.w3.org/2000/svg" xmlns:xlink="http://www.w3.org/1999/xlink" x="0px" y="0px" viewBox="0 0 41.9 41.8"
	 style="enable-background:new 0 0 41.9 41.8;" xml:space="preserve">
<style type="text/css">
	.st0{fill:#ffffff;}
</style>
<path class="st0" d="M31.8,3c-4.8-3-10.8-3.8-16.2-2.4C7.5,2.7,1,10.1,0.2,18.5c-1,7.9,3,16.2,9.9,20.3c6.7,4.2,15.9,4,22.5-0.4
	c5.9-3.8,9.6-10.9,9.4-17.9C41.8,13.4,37.9,6.6,31.8,3z M22.1,38.8c-9.5,0.9-18.7-7.1-19-16.7c-0.7-7.7,4.4-15.4,11.7-18
	C25.1,0,37.6,7.6,38.7,18.5C40.3,28.4,32.1,38.5,22.1,38.8z"/>
<path id="Shape_3_" sketch:type="MSShapeGroup" class="st0" d="M15.8,19.9c4.6-3.8,9.1-7.6,13.8-11.3c-2.5,3.8-5,7.5-7.5,11.3
	C20.1,19.9,17.9,19.9,15.8,19.9L15.8,19.9z"/>
<path id="Shape_4_" sketch:type="MSShapeGroup" class="st0" d="M19.7,22c2.1,0,4.2,0,6.3,0c-4.6,3.7-9.1,7.6-13.8,11.3
	C14.7,29.5,17.3,25.7,19.7,22L19.7,22z"/>
</svg>
